<svg width="20" height="20" viewBox="0 0 20 20" fill="none" xmlns="http://www.w3.org/2000/svg">
<path fill-rule="evenodd" clip-rule="evenodd" d="M3.78414 2.16604L5.6038 3.31511C6.43466 2.76761 7.37364 2.37084 8.38182 2.16374L8.85596 0.0647276C9.23139 0.021969 9.61313 0 10 0C10.3869 0 10.7686 0.0219691 11.144 0.0647277L11.6182 2.16374C12.6264 2.37084 13.5653 2.76761 14.3962 3.31511L16.2159 2.16604C16.8149 2.64196 17.358 3.18513 17.834 3.78414L16.6849 5.6038C17.2324 6.43466 17.6292 7.37364 17.8363 8.38182L19.9353 8.85596C19.978 9.23139 20 9.61313 20 10C20 10.3869 19.978 10.7686 19.9353 11.144L17.8363 11.6182C17.6292 12.6264 17.2324 13.5653 16.6849 14.3962L17.834 16.2159C17.358 16.8149 16.8149 17.358 16.2159 17.834L14.3962 16.6849C13.5653 17.2324 12.6264 17.6292 11.6182 17.8363L11.144 19.9353C10.7686 19.978 10.3869 20 10 20C9.61313 20 9.23139 19.978 8.85596 19.9353L8.38182 17.8363C7.37364 17.6292 6.43466 17.2324 5.6038 16.6849L3.78414 17.834C3.18513 17.358 2.64196 16.8149 2.16604 16.2159L3.31511 14.3962C2.76761 13.5653 2.37084 12.6264 2.16374 11.6182L0.0647277 11.144C0.0219691 10.7686 0 10.3869 0 10C0 9.61313 0.021969 9.23139 0.0647276 8.85596L2.16374 8.38182C2.37084 7.37364 2.76761 6.43466 3.31511 5.6038L2.16604 3.78414C2.64196 3.18513 3.18513 2.64196 3.78414 2.16604ZM10 16C13.3137 16 16 13.3137 16 10C16 6.68629 13.3137 4 10 4C6.68629 4 4 6.68629 4 10C4 13.3137 6.68629 16 10 16Z" fill="white"/>
</svg>
